<svg width="48" height="48" viewBox="0 0 48 48" fill="none" xmlns="http://www.w3.org/2000/svg">
<path d="M43.5 24.0001C43.5 29.1718 41.4455 34.1317 37.7886 37.7887C34.1316 41.4456 29.1717 43.5001 24 43.5001C18.8283 43.5001 13.8684 41.4456 10.2114 37.7887C6.55446 34.1317 4.5 29.1718 4.5 24.0001C4.5 16.3126 8.96438 9.3076 15.8737 6.13697C16.0528 6.05473 16.2462 6.00856 16.4431 6.00108C16.6399 5.9936 16.8363 6.02497 17.021 6.0934C17.2058 6.16182 17.3752 6.26597 17.5197 6.39988C17.6642 6.53378 17.7809 6.69484 17.8631 6.87385C17.9454 7.05286 17.9915 7.24631 17.999 7.44317C18.0065 7.64002 17.9751 7.83642 17.9067 8.02115C17.8383 8.20588 17.7341 8.37532 17.6002 8.51981C17.4663 8.66429 17.3053 8.78098 17.1262 8.86322C11.2781 11.5482 7.5 17.4882 7.5 24.0001C7.5 28.3762 9.23839 32.573 12.3327 35.6674C15.4271 38.7617 19.6239 40.5001 24 40.5001C28.3761 40.5001 32.5729 38.7617 35.6673 35.6674C38.7616 32.573 40.5 28.3762 40.5 24.0001C40.5 17.4882 36.7219 11.5482 30.8737 8.86322C30.5122 8.69713 30.2315 8.39423 30.0933 8.02115C29.9551 7.64807 29.9708 7.23537 30.1369 6.87385C30.303 6.51233 30.6059 6.23159 30.9789 6.0934C31.352 5.95521 31.7647 5.97088 32.1262 6.13697C39.0356 9.3076 43.5 16.3126 43.5 24.0001Z" fill="white"/>
</svg>
